<svg width="24" height="24" viewBox="0 0 24 24" fill="none" xmlns="http://www.w3.org/2000/svg">
<g id="icon / cancel" clip-path="url(#clip0_0_185)">
<path id="Vector" d="M11.6465 10.9393L12 11.2929L12.3536 10.9393L17.3033 5.98959C17.4984 5.79453 17.8154 5.79453 18.0104 5.98959C18.2055 6.18465 18.2055 6.50164 18.0104 6.6967L13.0607 11.6464L12.7071 12L13.0607 12.3536L18.0104 17.3033C18.2055 17.4984 18.2055 17.8153 18.0104 18.0104C17.8154 18.2055 17.4984 18.2055 17.3033 18.0104L12.3536 13.0607L12 12.7071L11.6465 13.0607L6.69672 18.0104C6.50166 18.2055 6.18467 18.2055 5.98961 18.0104C5.79455 17.8153 5.79455 17.4984 5.98961 17.3033L10.9394 12.3536L11.2929 12L10.9394 11.6464L5.98961 6.6967C5.79455 6.50164 5.79455 6.18465 5.98961 5.98959C6.18467 5.79453 6.50166 5.79453 6.69672 5.98959L11.6465 10.9393Z" fill="white" stroke="white"/>
</g>
<defs>
<clipPath id="clip0_0_185">
<rect width="24" height="24" fill="white"/>
</clipPath>
</defs>
</svg>
